<svg width="400" height="400" viewBox="0 0 400 400" fill="none" xmlns="http://www.w3.org/2000/svg">
<g clip-path="url(#clip0_16681_10001)">
<path d="M293.297 233.228V186.448H307.606L308.693 192.432C312.677 187.993 318.111 185.904 325.627 185.904C339.936 185.904 347.996 194.424 347.996 209.564V233.228H332.328V210.924C332.328 202.676 328.616 198.412 321.28 198.412C313.4 198.412 308.965 202.584 308.965 210.016V233.224H293.297V233.228Z" fill="white"/>
<path d="M270.122 233.228V186.448H286.433V233.228H270.122ZM278.232 182.276C273.433 182.276 269.721 178.832 269.721 174.208C269.721 169.584 273.428 166.141 278.232 166.141C283.035 166.141 286.743 169.584 286.743 174.208C286.743 178.832 283.031 182.276 278.232 182.276Z" fill="white"/>
<path d="M212.74 233.228V165.896H263.092V180.04H229.403V191.464H257.841V204.7H229.403V233.228H212.74Z" fill="white"/>
<path d="M176.55 233.2C158.8 233.2 146.937 223.68 146.937 209.269C146.937 194.857 158.8 185.337 176.55 185.337C194.299 185.337 206.075 194.945 206.075 209.269C206.075 223.592 194.211 233.2 176.55 233.2ZM176.55 220.693C184.973 220.693 190.136 216.341 190.136 209.269C190.136 202.197 184.973 197.845 176.55 197.845C168.126 197.845 162.876 202.197 162.876 209.269C162.876 216.341 168.039 220.693 176.55 220.693Z" fill="white"/>
<path d="M124.096 233.355V166H140.181V233.351H124.096V233.355Z" fill="white"/>
<path d="M109.971 173.065L95.8058 183.729L79.0576 196.315V210.152L113.882 183.955C113.882 183.903 113.891 183.855 113.891 183.803C113.891 179.449 112.584 175.873 109.971 173.065Z" fill="#FF8800"/>
<path d="M109.507 201.168C108.943 200.86 108.344 200.586 107.71 200.33L96.9441 208.364C98.0945 209.512 98.6762 211.041 98.6762 212.958C98.6762 215.2 97.9079 216.999 96.3624 218.155C94.8214 219.311 92.5119 219.889 89.4298 219.889H69.7414V179.375H88.3663C90.8059 179.375 92.716 179.971 94.0964 181.157C94.9082 181.852 95.4725 182.713 95.8068 183.725L109.972 173.061C109.121 172.149 108.135 171.315 107.007 170.567C102.414 167.525 95.7156 166 86.9207 166H53.3037V233.355H86.6298C96.3928 233.355 103.838 231.717 108.977 228.449C114.113 225.177 116.683 220.432 116.683 214.209C116.683 211.193 116.088 208.599 114.899 206.413C113.709 204.232 111.912 202.485 109.503 201.173L109.507 201.168Z" fill="white"/>
</g>
<defs>
<clipPath id="clip0_16681_10001">
<rect width="295" height="68" fill="white" transform="translate(53 166)"/>
</clipPath>
</defs>
</svg>
